<svg version="1.2" xmlns="http://www.w3.org/2000/svg" viewBox="0 0 205 178" width="50" height="43">
	<title>quran-icon</title>
	<style>
		.s0 {
			fill: #fff
		}
	</style>
	<g id="Background">
		<path id="Path 1" class="s0"
			d="m43.5 15.7c-0.5 0.3-0.8 15.5-0.7 33.7 0.1 25.7 0.4 33.4 1.4 34.3 0.7 0.6 4.2 2.3 7.8 3.7 3.6 1.4 12.1 4.2 19 6.1 6.9 2 14.8 4.6 17.5 5.9 2.8 1.3 7.1 4.5 9.8 7l4.7 4.6c6.6-6.7 11-9.8 14-11.3 3-1.4 11.4-4.3 18.5-6.3 7.1-2 16.3-5.2 20.3-7l7.2-3.4c0-62.4-0.2-67.1-1.5-67.5-0.8-0.3-4.1 1-7.3 2.9-3.1 1.8-8 4.1-10.7 4.9-2.8 0.9-9.3 2.3-14.5 3.2-5.2 0.9-11.9 2.7-14.8 4-4.6 2.2-5.5 3.2-8 8.4-1.5 3.3-2.9 6-3.2 6.1-0.3 0-1.3-1.9-2.2-4.2-1-2.4-3-5.5-4.5-7-1.5-1.5-4.4-3.4-6.3-4.2-1.9-0.8-7.8-2.2-13-3.1-5.2-0.8-12.2-2.5-15.5-3.5-3.3-1.1-8-3.4-10.5-5-2.5-1.6-5-3-5.6-3-0.6 0-1.4 0.3-1.9 0.7zm-16.3 9.1l-3.2 2.7v74c45.2 19.4 58.5 25.4 58.7 26 0.1 0.6-9.5 5.1-21.5 10l-21.7 9c-0.4 12.4-0.1 15.5 0.5 15.5 0.6 0 14.6-5.9 31.2-13 16.7-7.2 31-13 31.8-13 0.8 0 14.1 5.4 29.5 12.1 15.4 6.6 29.5 12.7 31.2 13.5l3.3 1.4c0-15.8-0.2-17-1.8-17.3-0.9-0.2-10.8-4.2-21.9-8.8-11.2-4.6-20.1-8.8-20-9.4 0.2-0.6 13.5-6.6 29.5-13.5l29.2-12.5 0.1-74c-5.5-4.3-7.5-5.5-8.1-5.5-0.6 0-1 12.1-1 34.3l0.1 34.2c-7.4 3.3-23.2 10-39.9 16.9l-30.2 12.6c-12.8-5.2-26.4-10.9-38.5-16-12.1-5-24.2-10.1-26.8-11.3l-4.8-2.2c0.1-61-0.2-68.5-1.2-68.5-0.6 0-2.7 1.3-4.5 2.8z" />
	</g>
</svg>